<svg width="19" height="19" viewBox="0 0 19 19" fill="none" xmlns="http://www.w3.org/2000/svg">
<path fill-rule="evenodd" clip-rule="evenodd" d="M2.16666 0.242676C1.33823 0.242676 0.666656 0.914246 0.666656 1.74268V16.7427C0.666656 17.5711 1.33823 18.2427 2.16666 18.2427H17.1667C17.9951 18.2427 18.6667 17.5711 18.6667 16.7427V1.74268C18.6667 0.914246 17.9951 0.242676 17.1667 0.242676H2.16666ZM6.18742 4.2454C6.19305 5.20165 5.47727 5.79087 4.62789 5.78665C3.82773 5.78243 3.13023 5.1454 3.13445 4.24681C3.13867 3.40165 3.80664 2.72243 4.6743 2.74212C5.55461 2.76181 6.19305 3.40728 6.18742 4.2454ZM9.94636 7.00444H7.42637H7.42496V15.5643H10.0884V15.3646C10.0884 14.9847 10.0881 14.6047 10.0878 14.2246C10.087 13.2108 10.0861 12.1959 10.0913 11.1824C10.0927 10.9363 10.1039 10.6804 10.1672 10.4455C10.4048 9.56798 11.1938 9.00128 12.0741 9.14058C12.6394 9.22908 13.0134 9.55678 13.1709 10.0898C13.268 10.423 13.3116 10.7816 13.3158 11.129C13.3272 12.1766 13.3256 13.2242 13.324 14.2719C13.3234 14.6417 13.3228 15.0117 13.3228 15.3815V15.5629H15.9947V15.3576C15.9947 14.9056 15.9945 14.4537 15.9942 14.0018C15.9937 12.8723 15.9931 11.7428 15.9961 10.6129C15.9975 10.1024 15.9427 9.59898 15.8175 9.10538C15.6305 8.37128 15.2438 7.76378 14.6152 7.32508C14.1694 7.01287 13.68 6.81178 13.133 6.78928C13.0707 6.78669 13.0079 6.7833 12.9448 6.77989C12.6651 6.76477 12.3808 6.74941 12.1134 6.80334C11.3484 6.95662 10.6763 7.30678 10.1686 7.92408C10.1096 7.99488 10.0519 8.06678 9.96576 8.17408L9.94636 8.19838V7.00444ZM3.3483 15.5671H5.99908V7.01001H3.3483V15.5671Z" fill="black"/>
</svg>
