<svg width="19" height="19" viewBox="0 0 19 19" fill="none" xmlns="http://www.w3.org/2000/svg">
<path fill-rule="evenodd" clip-rule="evenodd" d="M13.6667 0.242676H5.66666C2.90524 0.242676 0.666656 2.48126 0.666656 5.24268V13.2427C0.666656 16.0041 2.90524 18.2427 5.66666 18.2427H13.6667C16.4281 18.2427 18.6667 16.0041 18.6667 13.2427V5.24268C18.6667 2.48126 16.4281 0.242676 13.6667 0.242676ZM16.9167 13.2427C16.9112 15.0353 15.4593 16.4872 13.6667 16.4927H5.66666C3.87401 16.4872 2.42215 15.0353 2.41666 13.2427V5.24268C2.42215 3.45003 3.87401 1.99817 5.66666 1.99268H13.6667C15.4593 1.99817 16.9112 3.45003 16.9167 5.24268V13.2427ZM14.4167 5.49268C14.969 5.49268 15.4167 5.04496 15.4167 4.49268C15.4167 3.9404 14.969 3.49268 14.4167 3.49268C13.8644 3.49268 13.4167 3.9404 13.4167 4.49268C13.4167 5.04496 13.8644 5.49268 14.4167 5.49268ZM9.66666 4.74268C7.18138 4.74268 5.16666 6.7574 5.16666 9.24268C5.16666 11.728 7.18138 13.7427 9.66666 13.7427C12.152 13.7427 14.1667 11.728 14.1667 9.24268C14.1694 8.04838 13.6961 6.90225 12.8516 6.05776C12.0071 5.21327 10.861 4.74002 9.66666 4.74268ZM6.91666 9.24268C6.91666 10.7615 8.14786 11.9927 9.66666 11.9927C11.1855 11.9927 12.4167 10.7615 12.4167 9.24268C12.4167 7.72388 11.1855 6.49268 9.66666 6.49268C8.14786 6.49268 6.91666 7.72388 6.91666 9.24268Z" fill="black"/>
</svg>
